<svg width="422" height="77" viewBox="0 0 422 77" fill="none" xmlns="http://www.w3.org/2000/svg">
<path d="M410.825 64.292V19.492H421.193V64.292H410.825Z" fill="#162556"/>
<path d="M380.291 65.06C373.934 65.06 368.963 63.2893 365.379 59.748C361.795 56.2067 360.003 51.1507 360.003 44.58V19.492H370.371V44.196C370.371 48.4627 371.246 51.5347 372.995 53.412C374.744 55.2893 377.198 56.228 380.355 56.228C383.512 56.228 385.966 55.2893 387.715 53.412C389.464 51.5347 390.339 48.4627 390.339 44.196V19.492H400.579V44.58C400.579 51.1507 398.787 56.2067 395.203 59.748C391.619 63.2893 386.648 65.06 380.291 65.06Z" fill="#162556"/>
<path d="M312.03 64.804C308.787 64.804 305.864 64.0787 303.262 62.628C300.659 61.1347 298.59 59.0653 297.054 56.42C295.56 53.7747 294.814 50.66 294.814 47.076C294.814 43.4493 295.56 40.3133 297.054 37.668C298.59 35.0227 300.659 32.9747 303.262 31.524C305.864 30.0733 308.787 29.348 312.03 29.348C314.931 29.348 317.47 29.988 319.646 31.268C321.822 32.548 323.507 34.4893 324.702 37.092C325.896 39.6947 326.494 43.0227 326.494 47.076C326.494 51.0867 325.918 54.4147 324.766 57.06C323.614 59.6627 321.95 61.604 319.774 62.884C317.64 64.164 315.059 64.804 312.03 64.804ZM313.758 56.612C315.379 56.612 316.851 56.228 318.174 55.46C319.496 54.692 320.542 53.604 321.31 52.196C322.12 50.7453 322.526 49.0387 322.526 47.076C322.526 45.0707 322.12 43.364 321.31 41.956C320.542 40.548 319.496 39.46 318.174 38.692C316.851 37.924 315.379 37.54 313.758 37.54C312.094 37.54 310.6 37.924 309.278 38.692C307.955 39.46 306.888 40.548 306.078 41.956C305.31 43.364 304.926 45.0707 304.926 47.076C304.926 49.0387 305.31 50.7453 306.078 52.196C306.888 53.604 307.955 54.692 309.278 55.46C310.6 56.228 312.094 56.612 313.758 56.612ZM322.782 64.292V57.252L322.974 47.012L322.334 36.836V16.804H332.318V64.292H322.782Z" fill="#162556"/>
<path d="M273.673 29.348C276.404 29.348 278.836 29.9027 280.969 31.012C283.145 32.0787 284.852 33.7427 286.089 36.004C287.327 38.2227 287.945 41.0813 287.945 44.58V64.292H277.961V46.116C277.961 43.3427 277.343 41.2947 276.105 39.972C274.911 38.6493 273.204 37.988 270.985 37.988C269.407 37.988 267.977 38.3293 266.697 39.012C265.46 39.652 264.479 40.6547 263.753 42.02C263.071 43.3853 262.729 45.1347 262.729 47.268V64.292H252.745V29.86H262.281V39.396L260.489 36.516C261.727 34.212 263.497 32.4413 265.801 31.204C268.105 29.9667 270.729 29.348 273.673 29.348Z" fill="#162556"/>
<path d="M233.495 64.292V29.86H243.479V64.292H233.495ZM238.487 25.06C236.653 25.06 235.159 24.5266 234.007 23.46C232.855 22.3933 232.279 21.0706 232.279 19.492C232.279 17.9133 232.855 16.5906 234.007 15.524C235.159 14.4573 236.653 13.924 238.487 13.924C240.322 13.924 241.815 14.436 242.967 15.46C244.119 16.4413 244.695 17.7213 244.695 19.3C244.695 20.964 244.119 22.3506 242.967 23.46C241.858 24.5266 240.365 25.06 238.487 25.06Z" fill="#162556"/>
<path d="M181.43 64.292L169.014 29.86H178.422L188.726 59.492H184.246L194.998 29.86H203.446L213.878 59.492H209.398L220.022 29.86H228.854L216.374 64.292H206.71L197.558 38.884H200.502L191.03 64.292H181.43Z" fill="#162556"/>
<path d="M152.885 64.804C149.173 64.804 145.867 64.0573 142.965 62.564C140.064 61.028 137.781 58.916 136.117 56.228C134.496 53.54 133.685 50.4893 133.685 47.076C133.685 43.62 134.496 40.5693 136.117 37.924C137.781 35.236 140.064 33.1453 142.965 31.652C145.867 30.116 149.173 29.348 152.885 29.348C156.512 29.348 159.669 30.116 162.357 31.652C165.045 33.1453 167.029 35.3 168.309 38.116L160.565 42.276C159.669 40.6547 158.539 39.46 157.173 38.692C155.851 37.924 154.4 37.54 152.821 37.54C151.115 37.54 149.579 37.924 148.213 38.692C146.848 39.46 145.76 40.548 144.949 41.956C144.181 43.364 143.797 45.0707 143.797 47.076C143.797 49.0813 144.181 50.788 144.949 52.196C145.76 53.604 146.848 54.692 148.213 55.46C149.579 56.228 151.115 56.612 152.821 56.612C154.4 56.612 155.851 56.2493 157.173 55.524C158.539 54.756 159.669 53.54 160.565 51.876L168.309 56.1C167.029 58.8733 165.045 61.028 162.357 62.564C159.669 64.0573 156.512 64.804 152.885 64.804Z" fill="#162556"/>
<path d="M116.995 64.292V29.86H126.979V64.292H116.995ZM121.987 25.06C120.153 25.06 118.659 24.5266 117.507 23.46C116.355 22.3933 115.779 21.0706 115.779 19.492C115.779 17.9133 116.355 16.5906 117.507 15.524C118.659 14.4573 120.153 13.924 121.987 13.924C123.822 13.924 125.315 14.436 126.467 15.46C127.619 16.4413 128.195 17.7213 128.195 19.3C128.195 20.964 127.619 22.3506 126.467 23.46C125.358 24.5266 123.865 25.06 121.987 25.06Z" fill="#162556"/>
<path d="M93.1599 64.804C90.2586 64.804 87.7199 64.164 85.5439 62.884C83.3679 61.604 81.6613 59.6627 80.4239 57.06C79.2293 54.4147 78.6319 51.0867 78.6319 47.076C78.6319 43.0227 79.2079 39.6947 80.3599 37.092C81.5119 34.4893 83.1759 32.548 85.3519 31.268C87.5279 29.988 90.1306 29.348 93.1599 29.348C96.4026 29.348 99.3039 30.0947 101.864 31.588C104.467 33.0387 106.515 35.0867 108.008 37.732C109.544 40.3773 110.312 43.492 110.312 47.076C110.312 50.7027 109.544 53.8387 108.008 56.484C106.515 59.1293 104.467 61.1773 101.864 62.628C99.3039 64.0787 96.4026 64.804 93.1599 64.804ZM72.8079 76.708V29.86H82.3439V36.9L82.1519 47.14L82.7919 57.316V76.708H72.8079ZM91.4319 56.612C93.0959 56.612 94.5679 56.228 95.8479 55.46C97.1706 54.692 98.2159 53.604 98.9839 52.196C99.7946 50.7453 100.2 49.0387 100.2 47.076C100.2 45.0707 99.7946 43.364 98.9839 41.956C98.2159 40.548 97.1706 39.46 95.8479 38.692C94.5679 37.924 93.0959 37.54 91.4319 37.54C89.7679 37.54 88.2746 37.924 86.9519 38.692C85.6293 39.46 84.5839 40.548 83.8159 41.956C83.0479 43.364 82.6639 45.0707 82.6639 47.076C82.6639 49.0387 83.0479 50.7453 83.8159 52.196C84.5839 53.604 85.6293 54.692 86.9519 55.46C88.2746 56.228 89.7679 56.612 91.4319 56.612Z" fill="#162556"/>
<rect x="4.8075" y="4.29199" width="56" height="56" fill="white" stroke="#2B7FFF" stroke-width="8"/>
<rect x="32.8075" y="8.29199" width="32" height="48" fill="#2B7FFF"/>
<path d="M64.8075 0.291992V8.29199H40.8075V28.292H64.8075V36.292H40.8075V56.292H64.8075V64.292H32.8075V0.291992H64.8075Z" fill="#162556"/>
</svg>
