<svg width="420" height="77" viewBox="0 0 420 77" fill="none" xmlns="http://www.w3.org/2000/svg">
<rect x="4.185" y="4.44199" width="55.7" height="55.7" stroke="#2B7FFF" stroke-width="8.3"/>
<rect x="29.3468" y="0.291992" width="34.6882" height="64" fill="#2B7FFF"/>
<path d="M409.597 64.292V19.492H419.965V64.292H409.597Z" fill="#162556"/>
<path d="M379.064 65.06C372.706 65.06 367.736 63.2893 364.152 59.748C360.568 56.2067 358.776 51.1507 358.776 44.58V19.492H369.143V44.196C369.143 48.4627 370.018 51.5347 371.768 53.412C373.517 55.2893 375.97 56.228 379.128 56.228C382.285 56.228 384.738 55.2893 386.488 53.412C388.237 51.5347 389.112 48.4627 389.112 44.196V19.492H399.352V44.58C399.352 51.1507 397.559 56.2067 393.975 59.748C390.391 63.2893 385.421 65.06 379.064 65.06Z" fill="#162556"/>
<path d="M310.802 64.804C307.559 64.804 304.637 64.0787 302.034 62.628C299.431 61.1347 297.362 59.0653 295.826 56.42C294.333 53.7747 293.586 50.66 293.586 47.076C293.586 43.4493 294.333 40.3133 295.826 37.668C297.362 35.0227 299.431 32.9747 302.034 31.524C304.637 30.0733 307.559 29.348 310.802 29.348C313.703 29.348 316.242 29.988 318.418 31.268C320.594 32.548 322.279 34.4893 323.474 37.092C324.669 39.6947 325.266 43.0227 325.266 47.076C325.266 51.0867 324.69 54.4147 323.538 57.06C322.386 59.6627 320.722 61.604 318.546 62.884C316.413 64.164 313.831 64.804 310.802 64.804ZM312.53 56.612C314.151 56.612 315.623 56.228 316.946 55.46C318.269 54.692 319.314 53.604 320.082 52.196C320.893 50.7453 321.298 49.0387 321.298 47.076C321.298 45.0707 320.893 43.364 320.082 41.956C319.314 40.548 318.269 39.46 316.946 38.692C315.623 37.924 314.151 37.54 312.53 37.54C310.866 37.54 309.373 37.924 308.05 38.692C306.727 39.46 305.661 40.548 304.85 41.956C304.082 43.364 303.698 45.0707 303.698 47.076C303.698 49.0387 304.082 50.7453 304.85 52.196C305.661 53.604 306.727 54.692 308.05 55.46C309.373 56.228 310.866 56.612 312.53 56.612ZM321.554 64.292V57.252L321.746 47.012L321.106 36.836V16.804H331.09V64.292H321.554Z" fill="#162556"/>
<path d="M272.446 29.348C275.177 29.348 277.609 29.9027 279.742 31.012C281.918 32.0787 283.625 33.7427 284.862 36.004C286.099 38.2227 286.718 41.0813 286.718 44.58V64.292H276.734V46.116C276.734 43.3427 276.115 41.2947 274.878 39.972C273.683 38.6493 271.977 37.988 269.758 37.988C268.179 37.988 266.75 38.3293 265.47 39.012C264.233 39.652 263.251 40.6547 262.526 42.02C261.843 43.3853 261.502 45.1347 261.502 47.268V64.292H251.518V29.86H261.054V39.396L259.262 36.516C260.499 34.212 262.27 32.4413 264.574 31.204C266.878 29.9667 269.502 29.348 272.446 29.348Z" fill="#162556"/>
<path d="M232.268 64.292V29.86H242.252V64.292H232.268ZM237.26 25.06C235.425 25.06 233.932 24.5266 232.78 23.46C231.628 22.3933 231.052 21.0706 231.052 19.492C231.052 17.9133 231.628 16.5906 232.78 15.524C233.932 14.4573 235.425 13.924 237.26 13.924C239.095 13.924 240.588 14.436 241.74 15.46C242.892 16.4413 243.468 17.7213 243.468 19.3C243.468 20.964 242.892 22.3506 241.74 23.46C240.631 24.5266 239.137 25.06 237.26 25.06Z" fill="#162556"/>
<path d="M180.202 64.292L167.786 29.86H177.194L187.498 59.492H183.018L193.77 29.86H202.218L212.65 59.492H208.17L218.794 29.86H227.626L215.146 64.292H205.482L196.33 38.884H199.274L189.802 64.292H180.202Z" fill="#162556"/>
<path d="M151.658 64.804C147.946 64.804 144.639 64.0573 141.738 62.564C138.837 61.028 136.554 58.916 134.89 56.228C133.269 53.54 132.458 50.4893 132.458 47.076C132.458 43.62 133.269 40.5693 134.89 37.924C136.554 35.236 138.837 33.1453 141.738 31.652C144.639 30.116 147.946 29.348 151.658 29.348C155.285 29.348 158.442 30.116 161.13 31.652C163.818 33.1453 165.802 35.3 167.082 38.116L159.338 42.276C158.442 40.6547 157.311 39.46 155.946 38.692C154.623 37.924 153.173 37.54 151.594 37.54C149.887 37.54 148.351 37.924 146.986 38.692C145.621 39.46 144.533 40.548 143.722 41.956C142.954 43.364 142.57 45.0707 142.57 47.076C142.57 49.0813 142.954 50.788 143.722 52.196C144.533 53.604 145.621 54.692 146.986 55.46C148.351 56.228 149.887 56.612 151.594 56.612C153.173 56.612 154.623 56.2493 155.946 55.524C157.311 54.756 158.442 53.54 159.338 51.876L167.082 56.1C165.802 58.8733 163.818 61.028 161.13 62.564C158.442 64.0573 155.285 64.804 151.658 64.804Z" fill="#162556"/>
<path d="M115.768 64.292V29.86H125.752V64.292H115.768ZM120.76 25.06C118.925 25.06 117.432 24.5266 116.28 23.46C115.128 22.3933 114.552 21.0706 114.552 19.492C114.552 17.9133 115.128 16.5906 116.28 15.524C117.432 14.4573 118.925 13.924 120.76 13.924C122.595 13.924 124.088 14.436 125.24 15.46C126.392 16.4413 126.968 17.7213 126.968 19.3C126.968 20.964 126.392 22.3506 125.24 23.46C124.131 24.5266 122.637 25.06 120.76 25.06Z" fill="#162556"/>
<path d="M91.9324 64.804C89.0311 64.804 86.4924 64.164 84.3164 62.884C82.1404 61.604 80.4337 59.6627 79.1964 57.06C78.0017 54.4147 77.4044 51.0867 77.4044 47.076C77.4044 43.0227 77.9804 39.6947 79.1324 37.092C80.2844 34.4893 81.9484 32.548 84.1244 31.268C86.3004 29.988 88.9031 29.348 91.9324 29.348C95.1751 29.348 98.0764 30.0947 100.636 31.588C103.239 33.0387 105.287 35.0867 106.78 37.732C108.316 40.3773 109.084 43.492 109.084 47.076C109.084 50.7027 108.316 53.8387 106.78 56.484C105.287 59.1293 103.239 61.1773 100.636 62.628C98.0764 64.0787 95.1751 64.804 91.9324 64.804ZM71.5804 76.708V29.86H81.1164V36.9L80.9244 47.14L81.5644 57.316V76.708H71.5804ZM90.2044 56.612C91.8684 56.612 93.3404 56.228 94.6204 55.46C95.9431 54.692 96.9884 53.604 97.7564 52.196C98.5671 50.7453 98.9724 49.0387 98.9724 47.076C98.9724 45.0707 98.5671 43.364 97.7564 41.956C96.9884 40.548 95.9431 39.46 94.6204 38.692C93.3404 37.924 91.8684 37.54 90.2044 37.54C88.5404 37.54 87.0471 37.924 85.7244 38.692C84.4017 39.46 83.3564 40.548 82.5884 41.956C81.8204 43.364 81.4364 45.0707 81.4364 47.076C81.4364 49.0387 81.8204 50.7453 82.5884 52.196C83.3564 53.604 84.4017 54.692 85.7244 55.46C87.0471 56.228 88.5404 56.612 90.2044 56.612Z" fill="#162556"/>
<path d="M38.8979 29.8589L64.0345 29.9526V38.0166L38.8979 37.9229V29.8589ZM39.651 55.972H64.035V64.292H29.347L29.3468 0.291997L64.035 0.291992V8.61198L39.6508 8.61199L39.651 55.972Z" fill="#162556"/>
</svg>
